<svg width="178" height="174" viewBox="0 0 178 174" fill="none" xmlns="http://www.w3.org/2000/svg">
<g style="mix-blend-mode:screen">
<path d="M87.1718 176.093L87.3946 176H87.5246C87.842 175.747 88.0484 175.381 88.1002 174.979C88.1365 174.632 88.0453 174.285 87.8436 174.001C87.6419 173.717 87.3436 173.517 87.0046 173.437H86.6147H86.3547H86.2433H86.0947H86.0019C85.8493 173.551 85.7225 173.696 85.6297 173.863C85.5369 174.029 85.4802 174.213 85.4634 174.403C85.4404 174.672 85.4883 174.942 85.6024 175.186C85.7164 175.431 85.8926 175.641 86.1133 175.796H86.2619H86.4661H86.6332H87.1718V176.093Z" fill="#DFCBB3"/>
</g>
<g style="mix-blend-mode:screen">
<path d="M24.9457 170.299H25.0757H25.28H25.7814H25.8928C26.1226 170.27 26.3406 170.18 26.5241 170.039L26.6727 169.89L26.8027 169.649V169.463V168.962V168.813C26.7666 168.574 26.6778 168.346 26.5427 168.145L26.3942 168.015L26.1342 167.866H25.9485H25.4471H25.2243L25.0757 167.736L24.7229 167.513H24.5372H24.2772H24.073C23.6653 167.601 23.299 167.824 23.0331 168.145L22.8288 168.405V168.553V168.776V168.943V169.333V169.5L22.9217 169.705V169.853C23.0781 170.041 23.2741 170.191 23.4957 170.294C23.7172 170.397 23.9588 170.449 24.203 170.447C24.4594 170.465 24.7157 170.413 24.9457 170.299Z" fill="#D59C38"/>
</g>
<g style="mix-blend-mode:screen">
<path d="M30.4608 134.386L30.2008 134.887V135.147V135.537L30.2937 135.797L30.4237 136.002V136.132V136.354C30.5943 136.775 30.8769 137.141 31.2407 137.413L31.5193 137.506H31.9464H32.2435L32.7263 137.171L32.912 136.911L33.0419 136.503V136.206V135.927C33.0419 135.742 32.9305 135.537 32.8563 135.333C32.7361 134.997 32.5215 134.702 32.2383 134.485C31.955 134.268 31.6151 134.137 31.2593 134.107H30.9807L30.6465 134.293L30.4608 134.386Z" fill="#662B02"/>
</g>
<g style="mix-blend-mode:screen">
<path d="M15.7353 174.458L15.8467 174.718V174.83V174.96L15.9396 175.053L16.181 175.257H16.3481H16.4781C16.7294 175.307 16.9895 175.289 17.2313 175.204C17.473 175.119 17.6875 174.97 17.8522 174.774C18.0114 174.565 18.1153 174.32 18.1543 174.06C18.1932 173.8 18.166 173.535 18.0751 173.289C17.9964 173.077 17.87 172.887 17.7057 172.732C17.5415 172.578 17.3438 172.463 17.128 172.397C16.9414 172.342 16.7449 172.329 16.5525 172.358C16.3601 172.387 16.1762 172.457 16.0139 172.564C15.7302 172.782 15.5425 173.101 15.4905 173.455C15.4385 173.809 15.5263 174.169 15.7353 174.458Z" fill="#F9F6D2"/>
</g>
<g style="mix-blend-mode:screen">
<path d="M63.8672 145.806V145.602V145.323V145.119V144.952V144.84V144.618L63.7186 144.135L63.6072 143.949L63.3658 143.726L63.1801 143.596C62.9932 143.521 62.7921 143.489 62.5911 143.5C62.3901 143.512 62.1941 143.567 62.017 143.663C61.8398 143.759 61.6858 143.892 61.566 144.054C61.4461 144.216 61.3632 144.402 61.3232 144.599L61.4717 144.915L61.3603 145.156L61.5831 145.695V145.917C61.7094 146.142 61.897 146.326 62.1239 146.447C62.3508 146.569 62.6077 146.623 62.8644 146.604C63.0876 146.573 63.2983 146.482 63.4746 146.342C63.651 146.202 63.7865 146.016 63.8672 145.806Z" fill="#EADECF"/>
</g>
<g style="mix-blend-mode:screen">
<path d="M29.7553 143.021H29.9224L30.1638 142.873L30.3124 142.743L30.5538 142.39V142.223V141.944V141.758C30.5306 141.533 30.4568 141.316 30.3378 141.123C30.2188 140.93 30.0578 140.766 29.8667 140.644H29.7367H29.4025H29.0496C28.7309 140.747 28.4632 140.968 28.3011 141.261C28.139 141.554 28.0946 141.898 28.1769 142.223C28.2976 142.525 28.5245 142.773 28.8152 142.92C29.1058 143.067 29.4401 143.103 29.7553 143.021Z" fill="#C47F1E"/>
</g>
<g style="mix-blend-mode:screen">
<path d="M0.508451 176.613L0.638436 176.835L0.879839 177.095L1.10267 177.225L1.62262 177.355H1.86402L2.16113 177.262L2.29111 177.374L2.56965 177.522H2.79249H3.40528C3.70094 177.506 3.98517 177.403 4.22233 177.225C4.44879 177.034 4.60078 176.769 4.6517 176.477C4.70263 176.186 4.64924 175.885 4.50087 175.628L4.38946 175.498L4.22233 175.331L4.07378 175.238L3.70239 175.071H3.55383H3.38671V174.756C3.39135 174.49 3.33906 174.227 3.23335 173.984C3.12765 173.74 2.97098 173.522 2.77392 173.344L2.53252 173.233H2.14256H1.88259L1.38121 173.456L1.15838 173.623L0.954116 173.92L0.861271 174.18C0.826957 174.365 0.77086 174.546 0.694146 174.719C0.432763 175.314 0.367725 175.977 0.508451 176.613Z" fill="#E7B851"/>
</g>
<g style="mix-blend-mode:screen">
<path d="M17.908 152.138V152.38V152.565C18.0206 152.835 18.2013 153.071 18.4324 153.25C18.6635 153.429 18.9371 153.545 19.2264 153.587C19.4772 153.627 19.7341 153.608 19.9761 153.531C20.2181 153.453 20.4384 153.32 20.6191 153.141C20.8665 152.907 21.0507 152.614 21.1545 152.289C21.2584 151.964 21.2786 151.619 21.2133 151.284C21.1381 150.987 20.9848 150.714 20.7694 150.496C20.554 150.277 20.2842 150.12 19.9878 150.04H19.8206H19.5607H19.375L19.0036 150.226H18.855L18.6693 150.43V150.541L18.5393 150.709C18.2515 151.019 18.0583 151.406 17.9823 151.823L17.908 152.138Z" fill="#EADECF"/>
</g>
<g style="mix-blend-mode:screen">
<path d="M10.3502 149.26C10.1384 149.308 9.93858 149.399 9.76297 149.526C9.58737 149.654 9.43965 149.816 9.32886 150.003V150.189V150.449V150.653L9.44027 151.061V151.228L9.58883 151.433L9.71881 151.563C9.93791 151.706 10.1847 151.8 10.443 151.841L10.7401 151.953H10.963H11.4458H11.6686L11.9286 151.786L12.0957 151.618C12.3056 151.288 12.3765 150.888 12.293 150.505C12.2096 150.123 11.9785 149.789 11.65 149.576C11.4679 149.434 11.2579 149.333 11.0339 149.279C10.8099 149.224 10.5768 149.218 10.3502 149.26Z" fill="#793903"/>
</g>
<g style="mix-blend-mode:screen">
<path d="M15.3268 154.069L15.4568 153.865V153.717C15.5536 153.326 15.4936 152.912 15.2897 152.565C15.1132 152.249 14.8207 152.015 14.4741 151.911C14.1274 151.807 13.754 151.842 13.4327 152.008H13.3028L13.1171 152.212V152.305V152.454V152.547C13.0246 152.924 13.0776 153.321 13.2656 153.661C13.4154 153.887 13.6198 154.072 13.8599 154.199C14.1001 154.326 14.3683 154.39 14.6397 154.385H14.7883H15.0111H15.1597L15.4568 154.144L15.3268 154.069Z" fill="#C47F1E"/>
</g>
<g style="mix-blend-mode:screen">
<path d="M41.8253 84.7693L41.9739 84.5278V84.4164V84.2493V83.6922V83.5065V83.3951C41.862 83.1657 41.6876 82.9725 41.4708 82.8379C41.254 82.7032 41.0035 82.6324 40.7483 82.6338C40.4853 82.6314 40.2263 82.6989 39.9979 82.8294C39.7696 82.9599 39.5799 83.1488 39.4484 83.3766C39.3296 83.5698 39.2591 83.7889 39.243 84.0151C39.2268 84.2414 39.2654 84.4682 39.3556 84.6764C39.4229 84.8563 39.5321 85.0175 39.6742 85.1467C39.8163 85.2759 39.9872 85.3693 40.1726 85.4192C40.4799 85.5319 40.8179 85.528 41.1225 85.4082C41.4271 85.2884 41.6771 85.0611 41.8253 84.7693Z" fill="#9F5504"/>
</g>
<g style="mix-blend-mode:screen">
<path d="M-0.550072 97.8791L-0.401516 98.0091L-0.141546 98.1391H0.044149H0.248412L0.452676 98.2319H0.95405H1.25116H1.56684L1.7711 98.1205C1.91472 97.99 2.02946 97.8309 2.10798 97.6534C2.1865 97.4759 2.22707 97.284 2.22707 97.0899C2.22707 96.8958 2.1865 96.7039 2.10798 96.5265C2.02946 96.349 1.91472 96.1899 1.7711 96.0593H1.41828L1.26973 95.8551H0.675509L0.489814 95.7437C0.235216 95.7337 -0.0166871 95.7988 -0.234584 95.9309C-0.452482 96.0629 -0.626764 96.2561 -0.735766 96.4864C-0.848746 96.7102 -0.891468 96.963 -0.858331 97.2115C-0.825195 97.46 -0.717748 97.6927 -0.550072 97.8791Z" fill="#E7D8C6"/>
</g>
<g style="mix-blend-mode:screen">
<path d="M55.4925 105.715V106.105V106.291V106.551V106.718L55.7153 107.071L55.8453 107.201L56.0495 107.349H56.2167C56.425 107.411 56.6444 107.427 56.8594 107.395C57.0743 107.363 57.2797 107.284 57.4608 107.164C57.6319 107.043 57.7762 106.888 57.8849 106.709C57.9935 106.531 58.0641 106.331 58.0922 106.124V105.808V105.548L57.9993 105.381L57.7579 105.065L57.6094 104.935L57.3865 104.805H57.2194H56.8109H56.6252H56.3652H56.1795L55.8267 105.047L55.6039 105.307L55.4739 105.529L55.4925 105.715Z" fill="#431B06"/>
</g>
<g style="mix-blend-mode:screen">
<path d="M12.3556 140.774L12.7827 140.422L12.9126 140.254L13.0426 139.976V139.79C13.0622 139.569 13.0324 139.345 12.9554 139.137C12.8783 138.928 12.7559 138.739 12.597 138.583C12.4475 138.449 12.2695 138.351 12.0764 138.297C11.8833 138.242 11.6803 138.232 11.4828 138.268H11.3342L11.13 138.379H11L10.74 138.658L10.6286 138.787V139.01V139.177C10.5935 139.501 10.6652 139.826 10.8329 140.105C11.0007 140.383 11.255 140.599 11.5571 140.719H11.817H12.1884L12.3556 140.774Z" fill="#9F5504"/>
</g>
<g style="mix-blend-mode:screen">
<path d="M1.54829 167.514L1.6597 167.644H1.75255L2.03109 167.848H2.14251H2.29106H2.42105C2.67269 167.881 2.92854 167.837 3.15425 167.721C3.37996 167.605 3.56473 167.422 3.68377 167.198C3.83039 166.938 3.89632 166.64 3.87317 166.342C3.85002 166.045 3.73884 165.761 3.55378 165.527L3.36809 165.378L3.05241 165.23H2.811H2.30963H2.06823L1.78969 165.415L1.62256 165.582C1.46577 165.804 1.36959 166.063 1.34354 166.333C1.31748 166.604 1.36246 166.876 1.47401 167.124L1.54829 167.514Z" fill="#F9DD85"/>
</g>
<g style="mix-blend-mode:screen">
<path d="M34.4532 86.7372V86.4772V86.273C34.3817 85.9482 34.1868 85.664 33.9096 85.4803C33.6324 85.2967 33.2946 85.228 32.9677 85.2888H32.8006L32.5963 85.4002L32.4663 85.5116L32.3178 85.623L32.1321 85.8087V85.9573L31.9835 86.2915V86.4401V86.8301C32.0271 87.0217 32.1087 87.2027 32.2235 87.3621C32.3383 87.5216 32.4841 87.6564 32.652 87.7585C32.8241 87.8517 33.0136 87.908 33.2086 87.924C33.4036 87.94 33.5998 87.9153 33.7847 87.8514L34.1004 87.7214L34.249 87.61L34.4347 87.4057V87.2386L34.5647 86.8301L34.4532 86.7372Z" fill="#E3D1BD"/>
</g>
<g style="mix-blend-mode:screen">
<path d="M1.23261 85.5306L1.06549 85.6606L0.879791 85.8834L0.768376 86.0691C0.64381 86.2453 0.566459 86.4504 0.543703 86.665C0.520948 86.8795 0.553546 87.0963 0.638389 87.2947L0.749806 87.4804L0.972639 87.6846L1.13976 87.7775L1.65971 87.9632H1.75255C2.06165 87.9768 2.36713 87.8923 2.62532 87.7218L2.77387 87.6104L2.88529 87.4432L3.01527 87.1833V86.9976V86.3848V86.1434L2.90386 85.9577C2.72056 85.7007 2.4522 85.5168 2.14632 85.4386C1.84044 85.3604 1.51676 85.393 1.23261 85.5306Z" fill="#D6BDA1"/>
</g>
<g style="mix-blend-mode:screen">
<path d="M27.7497 133.161H27.6012H27.3783H26.5241H26.3199L26.0599 133.291L25.9113 133.402C25.6856 133.65 25.5415 133.961 25.4983 134.293C25.4551 134.625 25.515 134.962 25.6699 135.259L25.8928 135.389L26.227 135.575L26.4499 135.76H27.0255H27.2855L27.5826 135.575L27.3969 135.278L27.7497 135.389L27.5269 135.203H27.434L27.824 135.445C27.9897 135.304 28.1209 135.127 28.2078 134.927C28.2947 134.728 28.3349 134.511 28.3254 134.294C28.34 134.07 28.2943 133.847 28.193 133.648C28.0917 133.449 27.9386 133.28 27.7497 133.161Z" fill="#F9D46B"/>
</g>
<g style="mix-blend-mode:screen">
<path d="M2.75538 49.1718V48.9304V48.7261C2.61701 48.4251 2.36887 48.1882 2.06169 48.064C1.75452 47.9397 1.41148 47.9375 1.1027 48.0577L0.954142 48.1505L0.768449 48.299L0.657032 48.429L0.527047 48.559L0.378492 48.7818V48.949V49.3018V49.4504V49.6732V49.8217C0.455623 50.006 0.572005 50.1713 0.719529 50.3059C0.867054 50.4406 1.04217 50.5416 1.23268 50.6016C1.41653 50.6632 1.6117 50.6835 1.80428 50.661C1.99686 50.6386 2.18212 50.5739 2.34685 50.4716L2.64396 50.2859L2.75538 50.1374L2.88536 49.9146V49.7289V49.3204L2.75538 49.1718Z" fill="#F9E59F"/>
</g>
<g style="mix-blend-mode:screen">
<path d="M16.2924 90.0426L16.6081 90.1912H16.9795H17.1652L17.7037 90.024L17.9265 89.8569L18.1679 89.5598L18.2793 89.3184V89.2256C18.3374 89.029 18.3537 88.8225 18.3271 88.6193C18.3005 88.4161 18.2316 88.2208 18.1249 88.0458C18.0182 87.8709 17.876 87.7202 17.7075 87.6036C17.539 87.487 17.3479 87.4069 17.1466 87.3686H16.9609H16.7195H16.5524L16.2181 87.5543L16.0696 87.6657L15.9025 87.8514V88.0186C15.7285 88.3502 15.6724 88.7311 15.7432 89.0988C15.8141 89.4665 16.0077 89.7993 16.2924 90.0426Z" fill="#EADECF"/>
</g>
<g style="mix-blend-mode:screen">
<path d="M6.02366 80.7397L6.13507 80.5354V80.3683C6.19193 79.9715 6.09927 79.5678 5.8751 79.2356C5.67218 78.9486 5.37066 78.7464 5.02814 78.6676C4.68561 78.5888 4.32607 78.639 4.01816 78.8084L3.90674 78.9199L3.60963 79.3098V79.4584V79.5698C3.54682 79.9465 3.63343 80.3329 3.85103 80.6468C4.0071 80.8699 4.2208 81.0465 4.46934 81.1577C4.71789 81.2689 4.99195 81.3105 5.26231 81.2782H5.42943L5.46657 81.1667L5.59656 81.0739L5.8751 80.8325L6.02366 80.7397Z" fill="#E7D8C6"/>
</g>
<path d="M61.8869 177.72L63.9352 175.672L-0.276275 111.461L-2.32464 113.509L61.8869 177.72Z" fill="url(#paint0_linear_1_6545)"/>
<path d="M96.7131 177.604L98.7615 175.555L-3.17378 73.6208L-5.22214 75.6692L96.7131 177.604Z" fill="url(#paint1_linear_1_6545)"/>
<path d="M175.55 180.355L177.598 178.307L-0.587061 0.122911L-2.63543 2.17126L175.55 180.355Z" fill="url(#paint2_linear_1_6545)"/>
<defs>
<linearGradient id="paint0_linear_1_6545" x1="6.2518" y1="120.195" x2="45.1463" y2="159.089" gradientUnits="userSpaceOnUse">
<stop stop-color="#F4E0AE"/>
<stop offset="0.2" stop-color="#EACD8C"/>
<stop offset="0.32" stop-color="#E5C47C"/>
<stop offset="0.36" stop-color="#E0BE77"/>
<stop offset="0.42" stop-color="#D2AD69"/>
<stop offset="0.5" stop-color="#BC9152"/>
<stop offset="0.54" stop-color="#AA7A40"/>
<stop offset="0.62" stop-color="#C09657"/>
<stop offset="0.72" stop-color="#D4AF6B"/>
<stop offset="0.8" stop-color="#E1BF78"/>
<stop offset="0.87" stop-color="#E5C47C"/>
</linearGradient>
<linearGradient id="paint1_linear_1_6545" x1="7.92001" y1="86.7629" x2="69.6648" y2="148.508" gradientUnits="userSpaceOnUse">
<stop stop-color="#F4E0AE"/>
<stop offset="0.2" stop-color="#EACD8C"/>
<stop offset="0.32" stop-color="#E5C47C"/>
<stop offset="0.36" stop-color="#E0BE77"/>
<stop offset="0.42" stop-color="#D2AD69"/>
<stop offset="0.5" stop-color="#BC9152"/>
<stop offset="0.54" stop-color="#AA7A40"/>
<stop offset="0.62" stop-color="#C09657"/>
<stop offset="0.72" stop-color="#D4AF6B"/>
<stop offset="0.8" stop-color="#E1BF78"/>
<stop offset="0.87" stop-color="#E5C47C"/>
</linearGradient>
<linearGradient id="paint2_linear_1_6545" x1="19.499" y1="22.3885" x2="127.43" y2="130.32" gradientUnits="userSpaceOnUse">
<stop stop-color="#F4E0AE"/>
<stop offset="0.2" stop-color="#EACD8C"/>
<stop offset="0.32" stop-color="#E5C47C"/>
<stop offset="0.36" stop-color="#E0BE77"/>
<stop offset="0.42" stop-color="#D2AD69"/>
<stop offset="0.5" stop-color="#BC9152"/>
<stop offset="0.54" stop-color="#AA7A40"/>
<stop offset="0.62" stop-color="#C09657"/>
<stop offset="0.72" stop-color="#D4AF6B"/>
<stop offset="0.8" stop-color="#E1BF78"/>
<stop offset="0.87" stop-color="#E5C47C"/>
</linearGradient>
</defs>
</svg>
